<?xml version="1.0" encoding="utf-8"?>
<!-- Generator: Adobe Illustrator 16.0.0, SVG Export Plug-In . SVG Version: 6.00 Build 0)  -->
<!DOCTYPE svg PUBLIC "-//W3C//DTD SVG 1.1//EN" "http://www.w3.org/Graphics/SVG/1.1/DTD/svg11.dtd">
<svg version="1.1" id="Layer_1" xmlns="http://www.w3.org/2000/svg" xmlns:xlink="http://www.w3.org/1999/xlink" x="0px" y="0px"
	 width="24px" height="24px" viewBox="0 0 24 24" enable-background="new 0 0 24 24" xml:space="preserve">
<g>
	<path d="M13.592,17.539l0.016,0.145c0.417-0.35,0.565-0.87,0.593-0.977l0.002-0.138c-0.256-0.295-0.493-0.608-0.705-0.94
		C13.53,16.567,13.537,16.772,13.592,17.539z"/>
	<path d="M9.802,16.707c0.026,0.106,0.174,0.627,0.593,0.977l0.016-0.153c0.039-0.532,0.074-1.313,0.1-1.964
		c-0.215,0.329-0.452,0.645-0.71,0.941L9.802,16.707z"/>
	<path d="M12.915,17.596c-0.059-0.821-0.065-1.011-0.104-2.069l-0.021-0.571c-0.507,0.212-1.076,0.219-1.578,0.024
		c-0.043,1.18-0.086,2.055-0.126,2.609l-0.032,0.293c-0.048,0.401-0.108,0.893,0.119,1.147c0.145,0.162,0.429,0.248,0.828,0.248
		c0.396,0,0.681-0.086,0.825-0.246c0.226-0.257,0.167-0.748,0.12-1.143L12.915,17.596z"/>
	<path d="M23.99,16.197c-0.063-0.144-0.382-0.185-0.498-0.189c-0.036-0.004-3.662-0.386-5.639-1.087
		c-2.098-0.741-2.284-2.507-2.213-3.961l0.009-0.187c0.077-1.521,0.174-3.412-0.82-4.848c-1.01-1.458-2.807-1.387-2.836-1.387
		c-0.019,0-1.817-0.071-2.825,1.387c-0.994,1.436-0.899,3.327-0.82,4.848l0.009,0.187c0.069,1.454-0.115,3.22-2.214,3.961
		c-1.978,0.701-5.604,1.085-5.649,1.087c-0.104,0.003-0.418,0.039-0.481,0.186c-0.043,0.095,0.031,0.259,0.21,0.457
		c0.742,0.834,2.517,2.611,2.541,2.634c0.009,0.012,0.225,0.255,0.677,0.153l0.117-0.024c3.36-0.67,5.875-2.455,7.109-5.035
		c-0.383-0.33-0.674-0.78-0.907-1.246h1.779v1.219h0.924v-1.219h1.781c-0.254,0.486-0.565,0.919-0.936,1.232
		c1.905,4.108,6.29,4.934,7.156,5.056c0.577,0.083,0.783-0.154,0.8-0.172c0.016-0.018,1.732-1.748,2.512-2.6
		C23.954,16.454,24.028,16.295,23.99,16.197z M11.538,12.21H9.377c-0.097-0.287-0.17-0.552-0.221-0.758
		c-0.018-0.07-0.028-0.138-0.044-0.208h2.426V12.21z M11.538,10.322H8.982v0.214c-0.087-0.619-0.08-1.03-0.08-1.053
		c0-0.043,0.002-0.082,0.002-0.124h2.634V10.322z M11.538,8.435H8.972c0.055-0.349,0.138-0.67,0.25-0.962h2.316V8.435z
		 M11.538,6.551H9.75c0.07-0.084,0.143-0.165,0.219-0.24c0.541-0.522,1.158-0.714,1.569-0.782V6.551z M12.462,5.528
		c0.413,0.068,1.03,0.26,1.571,0.78c0.076,0.077,0.148,0.158,0.217,0.242h-1.788V5.528z M12.462,7.473h2.316
		c0.111,0.292,0.197,0.613,0.249,0.962h-2.565V7.473z M14.852,11.483c-0.059,0.241-0.13,0.484-0.214,0.727h-2.176v-0.966h2.444
		C14.888,11.325,14.872,11.402,14.852,11.483z M15.055,10.322h-2.593V9.359h2.634c0.002,0.04,0.004,0.079,0.004,0.122
		C15.1,9.501,15.108,9.827,15.055,10.322z"/>
</g>
</svg>
